<svg preserveAspectRatio="none" overflow="visible" style="display: block;" width="24" height="24" viewBox="0 0 24 24" fill="none" xmlns="http://www.w3.org/2000/svg">
<g id="Frame">
<path id="Union" d="M19.8203 2.00755C20.1902 1.9742 20.5624 2.04461 20.8945 2.21067C21.2266 2.3767 21.5059 2.63224 21.7012 2.94798C21.8964 3.26385 22 3.6284 22 3.99973V15.9997C22 16.3711 21.8964 16.7356 21.7012 17.0515C21.5059 17.3673 21.2266 17.6227 20.8945 17.7888C20.5623 17.9549 20.1902 18.0253 19.8203 17.9919C19.4504 17.9586 19.0969 17.8222 18.7998 17.5993C18.7931 17.5943 18.7859 17.5889 18.7793 17.5837C16.5893 15.8515 13.8638 14.938 11.0732 14.9988C11.24 16.155 11.6932 17.2569 12.4004 18.1999C12.8775 18.8362 13.082 19.6363 12.9697 20.4236C12.8572 21.2112 12.4363 21.9227 11.7998 22.4001C11.1634 22.8773 10.3636 23.0818 9.57617 22.9695C8.78854 22.8569 8.07699 22.4361 7.59961 21.7995C6.11289 19.8171 5.22951 17.4568 5.04004 14.9997H5C4.20435 14.9997 3.44152 14.6834 2.87891 14.1208C2.31638 13.5582 2 12.7953 2 11.9997V7.99973C2.00007 7.20418 2.31636 6.44119 2.87891 5.87864C3.4415 5.31611 4.20441 4.99973 5 4.99973H11.0254C13.8327 5.07205 16.5768 4.15789 18.7793 2.41575C18.7859 2.41054 18.7931 2.40517 18.7998 2.40013C19.0969 2.17734 19.4505 2.04091 19.8203 2.00755ZM7.04785 14.9997C7.23261 17.0233 7.97325 18.9633 9.2002 20.5993C9.35929 20.8115 9.59591 20.9524 9.8584 20.99C10.1209 21.0275 10.3875 20.9586 10.5996 20.7995C10.8117 20.6404 10.9527 20.4038 10.9902 20.1413C11.0277 19.8789 10.9588 19.6122 10.7998 19.4001C9.83269 18.1106 9.23531 16.5898 9.05762 14.9997H7.04785ZM20 3.99973C17.5945 5.89542 14.6384 6.94678 11.5869 7.00169L10.9746 6.99973H5C4.73485 6.99973 4.48049 7.10525 4.29297 7.2927C4.1055 7.48018 4.00007 7.73461 4 7.99973V11.9997C4 12.2649 4.10552 12.5192 4.29297 12.7068C4.48051 12.8943 4.73478 12.9997 5 12.9997H10.9746C14.2412 12.9157 17.4339 13.9776 20 15.9997V3.99973Z" fill="#404756"/>
</g>
</svg>
